PathFileType	4	(X/Y/Z)	Patient4_TMGait_0pt6_02_right_40.trc.trc
DataRate	CameraRate	NumFrames	NumMarkers	Units	OrigDataRate	OrigDataStartFrame	OrigNumFrames
81.871345029240	81.871345029240	5	33	mm	81.871345029240	36	       141
Frame#	Time	Sacral			L.Shoulder			Chest			R.Shoulder			Neck			R.ASIS			L.ASIS			R.Thigh.Superior			R.Thigh.Lateral			R.Thigh.Inferior			R.Patella			L.Thigh.Superior			L.Thigh.Lateral			L.Thigh.Inferior			L.Patella			L.Shank.Superior			L.Shank.Lateral			L.Shank.Inferior			R.Shank.Superior			R.Shank.Lateral			R.Shank.Inferior			R.Heel			R.Midfoot.Superior			R.Midfoot.Lateral			R.Toe			L.Heel			L.Midfoot.Lateral			L.Midfoot.Superior			L.Toe			L.Elbow			L.Wrist			R.Elbow			R.Wrist			
		X1	Y1	Z1	X2	Y2	Z2	X3	Y3	Z3	X4	Y4	Z4	X5	Y5	Z5	X6	Y6	Z6	X7	Y7	Z7	X8	Y8	Z8	X9	Y9	Z9	X10	Y10	Z10	X11	Y11	Z11	X12	Y12	Z12	X13	Y13	Z13	X14	Y14	Z14	X15	Y15	Z15	X16	Y16	Z16	X17	Y17	Z17	X18	Y18	Z18	X19	Y19	Z19	X20	Y20	Z20	X21	Y21	Z21	X22	Y22	Z22	X23	Y23	Z23	X24	Y24	Z24	X25	Y25	Z25	X26	Y26	Z26	X27	Y27	Z27	X28	Y28	Z28	X29	Y29	Z29	X30	Y30	Z30	X31	Y31	Z31	X32	Y32	Z32	X33	Y33	Z33	

36	48.657500000000	821.303696258614	1013.372280152056	537.881412467277	1033.479791425393	1429.918895526864	358.156746181560	1129.977060054329	1347.137684348934	517.216964821700	1054.722480202194	1430.340869602280	690.048969241751	1042.297931043152	1487.982176504731	508.838174265977	1046.131980310706	935.472700931703	653.088942024972	1036.301897835452	960.429087240008	375.516848156021	1100.701345299786	747.535105712274	628.074627046741	1029.015087146796	636.307911100689	691.978567254257	1111.183211112510	588.598741414302	613.121451211206	1121.752810961473	500.881521157351	623.088361216062	1060.430677719383	737.853800117762	398.624559780752	965.757729158733	629.672003245700	333.769493700087	1048.583637628862	539.717034501746	388.136639404514	1038.257189124437	456.441292332165	386.497697145966	972.418534675326	400.537085098800	380.653165727170	835.478454817042	350.348618319625	329.292333844855	826.213508491435	221.743978277083	386.775948773318	1099.129851868676	411.257977972009	633.701528428616	1034.629038736302	305.333475132909	698.771798216119	1083.220461180576	211.060971814099	639.344683147944	959.679772184278	43.613550380567	614.552364627727	1130.179721797587	98.744540711987	648.229669934778	1043.566866975372	37.450496109101	688.902337715717	1251.591564086091	46.387833992313	675.453527777909	638.423108540387	142.787048333732	421.130280474405	702.023235593778	96.987731312352	347.225303951773	803.593550710900	116.531678592116	370.618803560393	892.085971386845	33.492627455134	356.296590274234	975.161756041560	1089.715197161438	226.875629041341	1219.584452782580	1015.102158405226	238.584603727638	941.530479543908	1115.241096713864	831.347531726573	1018.191329280681	864.359391431576	814.324869130663	
37	48.669714285714	821.388928631965	1014.505302344475	540.948797368139	1033.347545421492	1430.778914650033	360.491531233518	1130.496720556822	1347.772520037886	519.059693127919	1056.145462390761	1430.993449109012	692.334712822527	1042.844377654578	1488.709766164792	511.260388376093	1046.284207717064	936.588178739424	655.648613793802	1036.425215841343	961.224897521839	378.205451671685	1098.323144146661	746.559955464884	631.275374290950	1025.162479535388	636.536049272476	694.501801072496	1106.234224920191	587.900296894478	615.040968060185	1115.679008643699	500.391275791363	624.682692586659	1065.319789586806	740.685856823242	401.662358314413	975.286816606695	630.096041487896	335.621482478676	1060.929297583041	542.078148588827	390.245635261373	1051.771000389656	457.504186557540	387.939255327713	983.966387115465	401.840395396419	381.844112463876	845.319251685343	356.670983705984	330.171441841908	831.859612096194	228.055437317555	386.681953446999	1092.981468390834	411.063454003236	635.172925729725	1028.274713497459	305.129748698632	699.927882112245	1076.520136585770	210.966869544411	640.009109603454	952.508213024828	43.557046099483	614.723737879481	1123.210321513488	98.555831065890	648.699428748469	1036.379564754202	37.409516117533	689.105052551910	1244.456007269154	46.147382086395	675.676079269037	641.563298783214	159.581363441476	420.630753610984	701.833884320362	109.120993685764	346.932554947594	804.483899426473	121.505141113991	370.199495548418	885.772785108035	32.093420325271	356.365050071893	970.577348616995	1090.117462375610	231.693357314100	1212.126819173980	1004.766741025284	242.480593881979	946.947675542140	1114.509953273295	834.509862340589	1031.607496380208	866.736509053535	813.452941333708	
38	48.681928571429	821.368317213936	1015.460347034192	543.837472451280	1032.980207364003	1431.420880579068	362.633981785911	1130.858110766006	1348.246021417039	520.694769002206	1057.415849999954	1431.493918964200	694.413014054080	1043.217427066290	1489.278574829560	513.467771439238	1046.272412912636	937.519100061437	658.151358131835	1036.141042681067	961.613204092857	380.980407822566	1095.933624566545	745.626362938830	634.436321320081	1021.287753046624	636.691739186556	696.941220028579	1101.433242861847	587.205572249944	617.019438985658	1109.719744651987	499.903700245458	626.297298888363	1070.067215536827	743.692735694322	404.894505568817	984.857221945462	630.879581817443	337.488851919074	1073.010820449797	544.946648335907	392.706993039844	1065.207747033776	459.167021627577	389.845197853814	995.715442389632	403.558130902573	383.334193318078	855.720032582912	363.115492544000	331.129375640223	838.212759771519	234.665835066385	386.834012995527	1086.933690646023	410.839780820629	636.606377994585	1021.948541310254	304.922836502505	701.026648093629	1069.855322083885	210.850671189984	640.655196245323	945.297945910105	43.522423469698	614.866281341687	1116.167865769358	98.352430784741	649.001513224556	1029.156393995794	37.368745675482	689.286764335567	1237.289408591338	45.852679832271	675.877772182178	646.033175165414	176.589839719213	420.213475641688	702.847515202179	121.821634821759	346.690490429845	806.179581578125	127.038993739762	369.996828274982	880.033165989943	30.711445949384	356.445934126892	966.131062211904	1090.287191232643	236.199612536681	1204.003644877762	993.501952825554	246.328193292873	952.591088957890	1113.626344892318	837.589687762790	1045.806080957901	869.610049572417	812.217024321467	
39	48.694142857143	821.241241560801	1016.236955542331	546.535940272621	1032.409640173411	1431.859699235981	364.587252387064	1131.063266640712	1348.568092001219	522.140077730184	1058.528382465223	1431.865357918680	696.280503975520	1043.443894018779	1489.704949972826	515.455004641168	1046.097768082517	938.274949080597	660.603120962503	1035.386734290500	961.575118966425	383.832136574721	1093.630841983651	744.785953740994	637.496175454420	1017.500542385242	636.794592909157	699.252315215338	1096.900484606465	586.534573467745	619.022642327046	1103.999263074682	499.419803919483	627.894223207163	1074.582129508667	746.876342028956	408.312335354491	994.337049841162	632.068471308176	339.370316439866	1084.674358973054	548.322516380704	395.494543367827	1078.423212458544	461.431500371616	392.136508583326	1007.511835036224	405.695815822976	385.081345002189	866.492805321523	369.579526398374	332.186781133413	845.203782808629	241.420162795732	387.232540041882	1081.079761358652	410.584806429948	637.969383715132	1015.727425577148	304.731809651073	702.058612924971	1063.258409317636	210.708891743520	641.267018527855	938.037224459792	43.513380904472	614.992420807058	1109.050277407420	98.160011565514	649.182462751410	1021.888131970563	37.333351405675	689.449780538375	1230.080976613901	45.525354338062	676.066550874089	651.730207971301	193.249708170162	419.917144955475	705.127929226796	134.646206062398	346.527900019042	808.773941038090	132.990776679886	370.000303654867	875.230508805961	29.505005521363	356.541408271623	961.909236984635	1090.214351995295	240.417854634387	1195.157085479079	981.326448466907	250.078079003712	958.463533378703	1112.597751906447	840.505480691656	1060.737038560637	873.075880181945	810.567172778996	
40	48.706357142857	821.006860645273	1016.849510648124	549.050025848897	1031.671891673015	1432.123851487171	366.361429003807	1131.118779648111	1348.761924049754	523.419306544047	1059.485338501443	1432.139557099095	697.944322496099	1043.551419910870	1490.013698746034	517.226840558145	1045.770327202605	938.875641432678	662.998882725995	1034.159350144676	961.156757508535	386.727119679514	1091.485872540570	744.060304558838	640.401605257025	1013.878271400231	636.859718758710	701.395652067854	1092.702099517098	585.897740979454	621.002534280593	1098.594175939210	498.934988730958	629.427666209094	1078.785365878052	750.236903476667	411.884213020209	1003.603007147226	633.695110077040	341.248245328288	1095.802515097914	552.190896079738	398.539244462701	1091.297135157403	464.286335476527	394.691181419423	1019.224304797810	408.250408867191	387.008122515518	877.456092976999	375.950473234498	333.355327785667	852.786889526090	248.137235590897	387.855409882303	1075.473773510102	410.295911908840	639.231218139840	1009.660374987130	304.567934758967	703.011973135427	1056.748251274758	210.539038321737	641.829526658266	930.725194188084	43.528923943321	615.114438628985	1101.864513784957	97.994987049030	649.287050041884	1014.575384300965	37.305284270984	689.594623053150	1222.828350577507	45.189293484530	676.249545147399	658.528724576625	208.941449049264	419.786617336149	708.732245851970	147.081126832522	346.476568878079	812.395787498100	139.159779084493	370.184365898449	871.828323635582	28.641587970996	356.643871537635	957.989233545074	1089.909283978420	244.389582513638	1185.519650363984	968.303343301345	253.686387550657	964.565283387829	1111.443940915944	843.180204557517	1076.340465407984	877.244990757738	808.456462618947	
